<?xml version="1.0" encoding="UTF-8"?>
<!DOCTYPE xml>
<svg xmlns="http://www.w3.org/2000/svg" viewBox="0 0 157 192" fill="none"><path d="M153.7 191.348v-44.41l-1.302-3.262h-1.302l-1.302 3.262v1.958h-20.845v-28.734l-1.302-3.262h-1.302l-1.302 3.262h-3.452v-15.023h-5.018V69.22l-1.302-3.262h-1.302l-1.302 3.262v1.169h-2.604v-23.37l-1.301-3.262h-1.302l-1.249 3.126h-3.368l-1.249-3.126h-1.302l-1.25 3.126h-2.149l-.515-.516h-.65V28.734l-1.302-3.263h-1.302l-1.302 3.263h-4.557v-.653l-.65-.652h-.652v-8.491l-1.302-3.262H83.36l-1.301 3.262V.653L81.406 0h-.658l-.643.653v1.305H76.85V.653L76.199 0h-.659l-.643.653v18.483-.198l-1.302-3.262h-1.302l-1.302 3.262v8.49h-.658l-.644.653v.653h-5.215l-1.302-3.263h-1.301l-1.302 3.263v17.633h-.008l-.507.516h-2.142l-1.25-3.126h-1.301l-1.249 3.126h-2.717l-1.25-3.126h-1.301l-1.302 3.262v23.37h-2.604V69.22l-1.302-3.262h-1.302l-1.302 3.262v35.919h-5.018v15.023h-4.102L30.61 116.9h-1.302l-1.302 3.262v28.734H7.811v-1.958l-1.302-3.262H5.208l-1.302 3.262v44.41H0V192h157v-.652h-3.3zM67.706 48.651v6.274h-1.953v-6.274h1.953zm23.45 0v6.274h-1.953v-6.274h1.953zm14.987 13.202h-3.255v-6.814h3.255v6.814zm6.517 37.36h-7.819V92.4h7.819v6.813zm12.375 43.097h-16.94v-7.072h16.94v7.072zm24.752 48.977H111.35v-5.759h38.437v5.759zm-89.9-91.96h1.953v5.82l-.65-.653h-.66l-.643.653v-5.82zm-14.98-13.855h7.169v6.814h-7.168v-6.814zm11.075 0h1.953v6.814h-1.953v-6.814zm3.905 0h1.953v6.814h-1.953v-6.814zm1.953-23.505h1.953v7.26l-.65-.652h-.66l-.643.653v-7.261zM75.525 48.65v6.274h-1.953V48.65h1.953zm7.82 0v6.274H81.39V48.65h1.953zm13.677 43.635h-1.953v-6.814h1.953v6.814zm1.953-6.814h1.952v6.814h-1.952v-6.814zM63.8 99.327h1.953v5.82l-.651-.653h-.659l-.643.653v-5.82zm1.953-37.36h1.952v7.26l-.65-.652h-.66l-.642.653v-7.261zm13.677 0v7.26l-.65-.652h-.66l-.643.653v-7.261h1.953zm-1.953-.114v-6.814h1.953v6.814h-1.953zM63.8 178.343h1.953v7.071H63.8v-7.071zm-1.96 7.071h-1.954v-7.071h1.953v7.071zm5.865-86.087h1.953v5.82l-.65-.653h-.66l-.643.653v-5.82zm3.906 0h1.953v5.82l-.651-.653h-.659l-.643.653v-5.82zm13.685-27.17v6.274h-1.953v-6.275h1.953zm-9.772 27.17h1.953v5.82l-.65-.653h-.66l-.643.653v-5.82zm3.906 7.58v6.275h-1.953v-6.275h1.953zm0 6.389v6.866h-1.953v-6.866h1.953zm0 8.626v6.275h-1.953v-6.275h1.953zm0 6.397v6.813h-1.953v-6.813h1.953zm0 6.927v7.071h-1.953v-7.071h1.953zm0 7.178v5.167l-.65-.653h-.66l-.643.653v-5.167h1.953zm1.953 8.232v6.275H79.43v-6.275h1.953zm-3.906 0v6.275h-1.953v-6.275h1.953zm0 6.396v6.814h-1.953v-6.814h1.953zm1.953 0h1.953v6.814H79.43v-6.814zm3.913 0h1.953v6.814h-1.953v-6.814zm0-.114v-6.274h1.953v6.274h-1.953zm0-9.347l-.65-.653h-.66l-.643.653v-5.167h1.953v5.167zm-1.96-5.281v-7.072h1.953v7.072h-1.953zm0-7.185v-6.814h1.953v6.814h-1.953zm0-6.92v-6.275h1.953v6.275h-1.953zm0-8.035v-6.867h1.953v6.867h-1.953zm0-6.988v-6.275h1.953v6.275h-1.953zm-.651-8.688h-.659l-.643.653v-5.82h1.953v5.82l-.651-.653zm-1.302-5.28V92.4h1.953v6.813H79.43zm0-6.928v-6.814h1.953v6.814H79.43zm0-6.927v-6.814h1.953v6.814H79.43zm-1.953 0h-1.953v-6.814h1.953v6.814zm0 .113v6.814h-1.953v-6.814h1.953zm0 6.928v6.813h-1.953V92.4h1.953zm-1.953 14.507v6.275h-1.953v-6.275h1.953zm0 6.389v6.866h-1.953v-6.866h1.953zm0 8.626v6.275h-1.953v-6.275h1.953zm0 6.397v6.813h-1.953v-6.813h1.953zm0 6.927v7.071h-1.953v-7.071h1.953zm0 7.178v5.167l-.65-.653h-.66l-.643.653v-5.167h1.953zm-1.953 8.232v6.275H71.62v-6.275h1.952zm0 6.396v6.814H71.62v-6.814h1.952zm0 6.928v7.071H71.62v-7.071h1.952zm1.953 0h1.953v7.071h-1.953v-7.071zm3.906 0h1.953v7.071H79.43v-7.071zm3.913 0h1.953v7.071h-1.953v-7.071zm3.906 0h1.953v7.071H87.25v-7.071zm0-.122v-6.813h1.953v6.813H87.25zm0-6.92v-6.274h1.953v6.274H87.25zm0-9.347l-.651-.653h-.659l-.643.653v-5.167h1.953v5.167zm-1.953-5.281v-7.072h1.953v7.072h-1.953zm0-7.185v-6.814h1.953v6.814h-1.953zm0-6.92v-6.275h1.953v6.275h-1.953zm0-8.035v-6.867h1.953v6.867h-1.953zm0-6.988v-6.275h1.953v6.275h-1.953zm-.65-8.688h-.66l-.643.653v-5.82h1.953v5.82l-.65-.653zm-1.303-5.28V92.4h1.953v6.813h-1.953zm0-6.928v-6.814h1.953v6.814h-1.953zm0-6.927v-6.814h1.953v6.814h-1.953zm-1.96-13.203v6.275H79.43v-6.275h1.953zm-3.906 0v6.275h-1.953v-6.275h1.953zm-3.906 0v6.275H71.62v-6.275h1.952zm0 6.397v6.813H71.62v-6.813h1.952zm0 6.92v6.813H71.62v-6.814h1.952zm0 6.927v6.813H71.62V92.4h1.952zm-1.96 14.507v6.275H69.66v-6.275h1.953zm0 6.389v6.866H69.66v-6.866h1.953zm0 8.626v6.275H69.66v-6.275h1.953zm0 6.397v6.813H69.66v-6.813h1.953zm0 6.927v7.071H69.66v-7.071h1.953zm0 7.178v5.167l-.65-.653h-.66l-.643.653v-5.167h1.953zm-1.953 8.232v6.275h-1.953v-6.275h1.953zm0 6.396v6.814h-1.953v-6.814h1.953zm0 6.928v7.071h-1.953v-7.071h1.953zm0 7.177v7.072h-1.953v-7.072h1.953zm1.953 0h1.953v7.072h-1.953v-7.072zm3.913 0h1.953v7.072h-1.953v-7.072zm3.906 0h1.953v7.072H79.43v-7.072zm3.913 0h1.953v7.072h-1.953v-7.072zm3.906 0h1.953v7.072H87.25v-7.072zm3.906 0h1.953v7.072h-1.953v-7.072zm0-.113v-7.072h1.953v7.072h-1.953zm0-7.186v-6.813h1.953v6.813h-1.953zm0-6.92v-6.274h1.953v6.274h-1.953zm0-9.347l-.651-.653h-.659l-.643.653v-5.167h1.953v5.167zm-1.953-5.281v-7.072h1.953v7.072h-1.953zm0-7.185v-6.814h1.953v6.814h-1.953zm0-6.92v-6.275h1.953v6.275h-1.953zm0-8.035v-6.867h1.953v6.867h-1.953zm0-6.988v-6.275h1.953v6.275h-1.953zm-.651-8.688h-.659l-.643.653v-5.82h1.953v5.82l-.651-.653zm-1.302-5.28V92.4h1.953v6.813H87.25zm0-6.928v-6.814h1.953v6.814H87.25zm0-6.927v-6.814h1.953v6.814H87.25zm0-6.928v-6.275h1.953v6.275H87.25zm-17.59-6.275v6.275h-1.954v-6.275h1.953zm0 6.397v6.813h-1.954v-6.813h1.953zm0 6.92v6.813h-1.954v-6.814h1.953zm0 6.927v6.813h-1.954V92.4h1.953zm-1.954 14.507v6.275h-1.953v-6.275h1.953zm0 6.389v6.866h-1.953v-6.866h1.953zm0 8.626v6.275h-1.953v-6.275h1.953zm0 6.397v6.813h-1.953v-6.813h1.953zm0 6.927v7.071h-1.953v-7.071h1.953zm0 7.178v5.167l-.65-.653h-.66l-.642.653v-5.167h1.952zm-1.953 8.232v6.275H63.8v-6.275h1.953zm0 6.396v6.814H63.8v-6.814h1.953zm0 6.928v7.071H63.8v-7.071h1.953zm0 7.177v7.072H63.8v-7.072h1.953zm1.953 7.186h1.953v7.071h-1.953v-7.071zm3.906 0h1.953v7.071h-1.953v-7.071zm3.913 0h1.953v7.071h-1.953v-7.071zm3.906 0h1.953v7.071H79.43v-7.071zm3.913 0h1.953v7.071h-1.953v-7.071zm3.906 0h1.953v7.071H87.25v-7.071zm3.906 0h1.953v7.071h-1.953v-7.071zm3.913 0h1.953v7.071h-1.953v-7.071zm3.906 0h1.952v7.071h-1.952v-7.071zm0-.114v-7.072h1.952v7.072h-1.952zm-1.953 0h-1.953v-7.072h1.953v7.072zm-1.953-7.185v-7.072h1.953v7.072h-1.953zm0-7.186v-6.813h1.953v6.813h-1.953zm0-6.92v-6.274h1.953v6.274h-1.953zm0-9.347l-.651-.653h-.659l-.643.653v-5.167h1.953v5.167zm-1.953-5.281v-7.072h1.953v7.072h-1.953zm0-7.185v-6.814h1.953v6.814h-1.953zm0-6.92v-6.275h1.953v6.275h-1.953zm0-8.035v-6.867h1.953v6.867h-1.953zm0-6.988v-6.275h1.953v6.275h-1.953zm-.659-8.688H91.8l-.643.653v-5.82h1.953v5.82l-.651-.653zm-1.301-5.28V92.4h1.953v6.813h-1.953zm0-6.928v-6.814h1.953v6.814h-1.953zm0-6.927v-6.814h1.953v6.814h-1.953zm0-6.928v-6.275h1.953v6.275h-1.953zm-.651-9.856h-.659l-.643.653v-7.261h1.953v7.26l-.651-.652zm-3.255.653l-.651-.653h-.659l-.643.653v-7.261h1.953v7.26zm-3.906 0l-.65-.653h-.66l-.643.653v-7.261h1.953v7.26zm-7.819 0l-.65-.653h-.66l-.643.653v-7.261h1.953v7.26zm-3.913 0l-.65-.653h-.66l-.643.653v-7.261h1.953v7.26zm-5.858 2.928v6.275H63.8v-6.275h1.953zm0 6.397v6.813H63.8v-6.813h1.953zm0 6.92v6.813H63.8v-6.814h1.953zm0 6.927v6.813H63.8V92.4h1.953zM63.8 106.907v6.275h-1.953v-6.275H63.8zm0 6.389v6.866h-1.953v-6.866H63.8zm0 8.626v6.275h-1.953v-6.275H63.8zm0 6.397v6.813h-1.953v-6.813H63.8zm0 6.927v7.071h-1.953v-7.071H63.8zm0 7.178v5.167l-.651-.653h-.659l-.643.653v-5.167H63.8zm-1.96 8.232v6.275h-1.954v-6.275h1.953zm0 6.396v6.814h-1.954v-6.814h1.953zm0 6.928v7.071h-1.954v-7.071h1.953zm0 7.177v7.072h-1.954v-7.072h1.953zm-3.907 7.072h-1.952v-7.072h1.953v7.072zm0 .114v7.071h-1.952v-7.071h1.953zm0 7.185v5.759h-1.952v-5.759h1.953zm1.953 0h1.953v5.759h-1.953v-5.759zm3.914 0h1.953v5.759H63.8v-5.759zm3.905 0h1.953v5.759h-1.953v-5.759zm3.906 0h1.953v5.759h-1.953v-5.759zm3.913 0h1.953v5.759h-1.953v-5.759zm3.906 0h1.953v5.759H79.43v-5.759zm3.913 0h1.953v5.759h-1.953v-5.759zm3.906 0h1.953v5.759H87.25v-5.759zm3.906 0h1.953v5.759h-1.953v-5.759zm3.913 0h1.953v5.759h-1.953v-5.759zm3.906 0h1.952v5.759h-1.952v-5.759zm3.913 0h4.557v5.759h-4.557v-5.759zm0-.114v-7.071h4.557v7.071h-4.557zm0-7.185v-7.072h4.557v7.072h-4.557zm0-7.185v-7.072h4.557v7.072h-4.557zm-1.961 0h-1.952v-7.072h1.952v7.072zm-1.952-7.186v-6.813h1.952v6.813h-1.952zm0-6.92v-6.274h1.952v6.274h-1.952zm0-9.347l-.651-.653h-.659l-.643.653v-5.167h1.953v5.167zm-1.953-5.281v-7.072h1.953v7.072h-1.953zm0-7.185v-6.814h1.953v6.814h-1.953zm0-6.92v-6.275h1.953v6.275h-1.953zm0-8.035v-6.867h1.953v6.867h-1.953zm0-6.988v-6.275h1.953v6.275h-1.953zm-.651-8.688h-.659l-.643.653v-5.82h1.953v5.82l-.651-.653zm-1.302-5.28V92.4h1.953v6.813h-1.953zm0-13.855v-6.814h1.953v6.814h-1.953zm0-6.928v-6.275h1.953v6.275h-1.953zm-.651-9.856h-.659l-.643.653v-7.261h1.953v7.26l-.651-.652zm-1.302-6.722v-6.814h1.953v6.814h-1.953zm-1.96 0h-1.953v-6.814h1.953v6.814zm-3.906 0h-1.953v-6.814h1.953v6.814zm-3.906 0H81.39v-6.814h1.953v6.814zM79.431 48.65v6.274h-1.953V48.65h1.953zm-3.906 6.388v6.814h-1.953v-6.814h1.953zm-3.913 6.814H69.66v-6.814h1.953v6.814zm-3.906 0h-1.953v-6.814h1.953v6.814zm-3.905 0h-1.953v-6.814H63.8v6.814zm-1.96 10.303v6.275h-1.954v-6.275h1.953zm0 6.397v6.813h-1.954v-6.813h1.953zm0 13.847v6.813h-1.954V92.4h1.953zm-1.954 14.507v6.275h-1.953v-6.275h1.953zm0 6.389v6.866h-1.953v-6.866h1.953zm0 8.626v6.275h-1.953v-6.275h1.953zm0 6.397v6.813h-1.953v-6.813h1.953zm0 6.927v7.071h-1.953v-7.071h1.953zm0 7.178v5.167l-.65-.653h-.66l-.642.653v-5.167h1.952zm-1.953 8.232v6.275h-1.952v-6.275h1.953zm0 6.396v6.814h-1.952v-6.814h1.953zm0 6.928v7.071h-1.952v-7.071h1.953zm-3.913 7.064h-4.564v-7.072h4.564v7.072zm0 .113v7.072h-4.564v-7.072h4.564zm0 7.186v7.071h-4.564v-7.071h4.564zm0 7.185v5.759h-4.564v-5.759h4.564zm95.766-.114H111.35v-7.071h38.437v7.071zm0-7.185H111.35v-7.072h38.437v7.072zm0-7.185H111.35v-7.072h38.437v7.072zm0-7.186H111.35v-6.813h38.437v6.813zm-42.342 0h-4.557v-6.813h4.557v6.813zm-4.557-6.92v-6.274h4.557v6.274h-4.557zm1.302-8.042h-1.302v-1.305l-.651-.653h-.659l-.643.653v-5.167h3.255v6.472zm-3.263-6.586v-7.072h3.255v7.072h-3.255zm24.108-7.185h-16.94v-6.814h16.94v6.814zm-20.845 0h-3.255v-6.814h3.255v6.814zm-3.263-6.92v-6.275h3.255v6.275h-3.255zm0-8.035v-6.867h3.255v6.867h-3.255zm0-6.988v-6.275h3.255v6.275h-3.255zm0-8.035l-.65-.653h-.659l-.643.653v-5.82h1.952v5.82zm-1.952-5.934V92.4h1.952v6.813h-1.952zm13.685-6.927h-7.819v-6.814h7.819v6.814zm0-6.927h-7.819v-6.814h7.819v6.814zm-11.733 0h-1.952v-6.814h1.952v6.814zm-1.952-6.928v-6.275h1.952v6.275h-1.952zm0-9.203l-.651-.653h-.659l-.643.653v-7.261h1.953v7.26zm-1.953-7.375v-6.814h1.953v6.814h-1.953zm9.121-6.928h-3.255V48.65h3.255v6.274zm-7.168 0h-1.953V48.65h1.953v6.274zm-3.906-6.274v6.274h-1.953V48.65h1.953zm-7.82 6.274h-1.952V48.65h1.953v6.274zm-2.088-8.035l-.515-.516h-.658l-.507.516h-2.226l-.515-.516h-.658l-.507.516h-.136V30.501h5.866v16.39h-.144zm-7.683 0h-.136l-.515-.516h-.658l-.507.516h-2.226l-.515-.516h-.658l-.507.516h-.136V30.501h5.866v16.39h-.008zm-5.866 1.76v6.275H69.66V48.65h1.953zm-7.811 0v6.275h-1.953V48.65H63.8zm-3.914 6.275h-1.953V48.65h1.953v6.274zm-5.866 0h-2.604V48.65h2.604v6.274zm0 .114v6.814h-2.604v-6.814h2.604zm3.913 0h1.953v6.814h-1.953v-6.814zm1.953 6.928v7.26l-.65-.652h-.66l-.642.653v1.168-8.43h1.952zm-1.953 10.19v6.274h-1.952v-6.275h1.953zm0 6.396v6.813h-1.952v-6.813h1.953zm-5.866 6.806H44.9v-6.814h7.168v6.814zm-7.16 7.04h7.168v6.814h-7.168V92.4zm11.074 0h1.953v6.814h-1.953V92.4zm1.953 6.928v5.82l-.651-.653h-.659l-.643.653v-5.82h1.953zm-1.953 7.58v6.275h-3.255v-6.275h3.255zm0 6.389v6.866h-3.255v-6.866h3.255zm0 8.626v6.275h-3.255v-6.275h3.255zm0 6.397v6.813h-3.255v-6.813h3.255zm-7.168 6.806h-16.94v-6.814h16.94v6.814zm0 .121v7.071h-16.94v-7.071h16.94zm3.905 0h3.255v7.071H52.72v-7.071zm3.263 7.178v5.167l-.651-.653h-.659l-.643.653v1.305h-1.302v-6.472h3.255zm-1.96 8.232v6.275h-4.557v-6.275h4.556zm0 6.396v6.814h-4.565v-6.814h4.564zm-8.463 6.806H7.773v-6.813H45.56v6.813zm0 .122v7.071H7.773v-7.071H45.56zm0 7.177v7.072H7.773v-7.072H45.56zm0 7.186v7.071H7.773v-7.071H45.56zm0 7.185v5.759H7.773v-5.759H45.56zm104.228-34.872v6.275H111.35v-6.275h38.437zm-38.437-1.76v-1.305l-1.302-3.263h-1.302l-.651 1.631v-3.535h16.94v6.472H111.35zm13.685-20.691h-16.94v-6.275h16.94v6.275zm-16.94-8.035v-6.867h12.573v6.867h-12.573zm12.573-6.988h-12.573v-6.275h12.573v6.275zm-12.573-8.035l-1.301-3.263h-1.302l-.651 1.631v-4.188h7.819v5.82h-4.565zm4.565-26.716h-7.819v-6.275h7.819v6.275zm-7.819-8.035v-1.168l-1.302-3.263h-.651v-3.998h3.255v8.43h-1.302zM91.807 30.501v15.873h-.008l-.507.516h-2.225l-.515-.516h-.659l-.507.516h-.136V30.501h4.557zm-9.772-9.598v7.838H79.43v-.652l-.65-.653h-.66l-.643.653v.652h-2.604v-7.838h7.16zm-12.376 9.599V46.89h-.136l-.515-.516h-.658l-.507.516h-2.226l-.514-.516h-.651V30.501h5.207zM51.417 61.966h2.604v3.998h-.65l-1.303 3.263v1.168h-.65v-8.43zm.651 10.19v6.274H44.9v-6.275h7.168zM44.9 99.326h7.168v4.188l-.65-1.631h-1.302l-1.302 3.263h-3.906l-.008-5.82zm3.914 7.58v6.275H36.892v-6.275h11.922zm-11.922 6.389h11.922v6.866H36.892v-6.866zm11.922 8.626v6.275h-16.94v-6.275h16.94zm-16.94 20.502h16.94v3.535l-.651-1.631H46.86l-1.302 3.263v1.305H31.874v-6.472zm13.685 8.232v6.275H7.773v-6.275H45.56z" fill="#292420"/></svg>