<?xml version="1.0" encoding="UTF-8"?>
<!DOCTYPE xml>
<svg xmlns="http://www.w3.org/2000/svg" viewBox="0 0 255 58" fill="none"><path d="M248.413 56.52V0H6.595v56.52H0v1.345h255V56.52h-6.587zM111.28 55.064H63.197v-1.107h48.083v1.107zm0-1.346H63.197v-1.107h48.083v1.107zm0-1.345H63.197v-1.107h48.083v1.107zm0-1.337H63.197v-1.107h24.007l.034.025.034-.025h24.008v1.107zM87.357 9.81l11.736 11.854-11.736 11.744V9.81zm-.23 23.598L75.333 21.605 87.128 9.802v23.606zM75.053 21.664l.025.205.094-.094L87.06 33.672l-11.837 7.894L63.384 9.989l11.668 11.675zM87.128 33.91v7.716H75.562l11.566-7.716zm.23 7.963h11.565l-11.566 7.715v-7.715zm-.23 7.715l-11.566-7.715h11.566v7.715zm-12.025-7.656l.06-.042 11.684 7.8H63.469l11.634-7.758zm24.22-.042l11.684 7.8H87.63l11.693-7.8zm-11.966-.256V33.92l11.566 7.715H87.357zm.068-7.962l11.83-11.837.093.093.026-.204L111.1 9.989 99.263 41.566l-11.838-7.894zM99.416 21.34l1.354-11.7h10.349l-11.702 11.7zm-.246.068L87.528 9.64h13.003l-1.362 11.769zm-23.914-.06L73.954 9.64h13.003L75.256 21.35zm-.247-.068L63.367 9.631h10.349l1.293 11.65zm-.043 20.276l-11.76-3.925V10.177l11.76 31.38zm-11.76-3.67l11.692 3.9-11.693 7.8v-11.7zm36.38 3.9l11.694-3.9v11.7l-11.694-7.8zm11.694-4.147l-11.762 3.926 11.762-31.39V37.64zm-95.051-28h6.476v46.888h.239V9.64h6.476v46.888h.238V9.64h6.476v46.888h.239V9.64h6.476v46.888h.238V9.64h6.476v46.888h.239V9.64h6.476v46.888h.238V9.64h6.477v40.11l-.298.179h.272v6.6h.238v-1.227h48.083v1.226h.238v-6.6h.273l-.273-.178V9.64h6.477v46.888h.238V9.64h6.476v46.888h.238V9.64h6.477v46.888h.238V9.64h6.476v46.888h.239V9.64h6.476v46.888h.238V9.64h6.476v46.888h.239V9.64h6.476v46.888h.238V9.64h6.477v46.888h.238V9.64h6.476v46.888h.238V9.64h6.477v46.888h.238V9.64h6.476v46.888h.238V9.64h6.477v46.888h.238V9.64h6.476v46.888h.239V9.64h6.476v46.888h.238V9.64h6.476v46.888h.239V9.64h6.476v46.888h.238V9.64h6.477v46.888h.238V9.64h6.476v46.888h.238V9.64h6.477v46.888H16.229V9.64z" fill="#292420"/></svg>