<?xml version="1.0" encoding="UTF-8"?>
<!DOCTYPE xml>
<svg xmlns="http://www.w3.org/2000/svg" viewBox="0 0 254 76" fill="none"><path d="M0 74.312v1.339h253.432v-1.339H0zm9.22 0h.236V63.744h10.437V74.32h.237V63.744h10.437V74.32h.237V63.744H41.24V74.32h.236V63.744h10.438V74.32h.236V63.744h10.437V74.32h.237V63.744h10.437V74.32h.237V63.744h10.437V74.32h.237V63.744H94.61V74.32h.237V63.744h10.437V74.32h.237V63.744h10.437V74.32h.203V63.744h10.437V74.32h.236V63.744h10.438V74.32h.236V63.744h10.437V74.32h.237V63.744h10.437V74.32h.237V63.744h10.437V74.32h.237V63.744h10.437V74.32h.237V63.744h10.437V74.32h.237V63.744h10.437V74.32h.236V63.744h10.438V74.32h.236V63.744h10.437V74.32h.237V63.744h10.437V74.32h.237V63.744h10.437V74.32h.237V63.744h5.337V27.422H116.042V.812H73.364v26.61H3.882v36.322H9.22v10.568zm229.656-33.407h10.437v6.687h-10.437v-6.687zm-10.674 0h10.437v6.687h-10.437v-6.687zm-10.665 0h10.437v6.687h-10.437v-6.687zm-10.674 0H217.3v6.687h-10.437v-6.687zm-10.674 0h10.437v6.687h-10.437v-6.687zm-90.694-4.008h10.437v11.907h-10.437V36.897zm0 12.144h10.437v14.466h-10.437V49.041zM94.821 36.897h10.437v11.907H94.821V36.897zm0 12.144h10.437v14.466H94.821V49.041zM84.147 36.897h10.438v11.907H84.147V36.897zm0 12.144h10.438v14.466H84.147V49.041zM73.482 36.897H83.92v11.907H73.482V36.897zm0 12.144H83.92v14.466H73.482V49.041z" fill="#292420"/></svg>