<?xml version="1.0" encoding="UTF-8"?>
<!DOCTYPE xml>
<svg class="logo" viewBox="0 0 107 36" xmlns="http://www.w3.org/2000/svg">
    <g class="logo__group-primary fadeInUp">
        <path
            d="M20.8679 15.6729C9.34582 15.6729 0 25.0112 0 36.5407H41.7283C41.7283 25.0187 32.3899 15.6729 20.8679 15.6729Z"></path>
    </g>
    <g class="logo__group-base">
        <path d="M12.5211 21.3747V36.5411H6.26074V0H12.5211V14.1454V21.3747Z"></path>
        <path d="M35.4674 21.3747V36.5411H29.207V0H35.4674V14.1454V21.3747Z"></path>
        <path
            d="M41.7285 0.0146484H44.6053V6.44642C45.6114 5.44029 47.0275 5.03039 48.4137 5.03039C51.8718 5.03039 53.8617 6.87123 53.8617 11.0299V18.4231H50.9849V11.2088C50.9849 8.73444 49.9788 7.70595 47.81 7.70595C46.394 7.70595 45.2388 8.56302 44.6053 9.87472V18.4231H41.7285V0.0146484Z"></path>
        <path
            d="M67.7093 15.9783C66.3752 17.767 64.5344 18.6539 62.388 18.6539C58.1772 18.6539 55.3525 15.9783 55.3525 11.842C55.3525 8.0113 57.7002 5.00781 62.0899 5.00781C65.6225 5.00781 68.2459 7.37781 68.2459 11.0073C68.2459 11.4396 68.1937 12.0656 68.0968 12.8482H58.3486C58.5722 14.92 60.2639 15.9783 62.4327 15.9783C63.8487 15.9783 65.1604 15.3001 65.9355 14.2344L67.7093 15.9783ZM58.3784 10.3515H65.2648C65.0412 8.53299 63.804 7.60139 61.9632 7.60139C60.018 7.60139 58.7585 8.65969 58.3784 10.3515Z"></path>
        <path d="M70.3101 0.0146484H73.1868V18.4305H70.3101V0.0146484Z"></path>
        <path
            d="M77.5468 0.0371094C78.4784 0.0371094 79.2087 0.692957 79.2087 1.55003C79.2087 2.45927 78.4784 3.11512 77.5468 3.11512C76.5406 3.11512 75.855 2.45927 75.855 1.55003C75.855 0.692957 76.5854 0.0371094 77.5468 0.0371094ZM76.1084 5.30625H78.9852V18.4232H76.1084V5.30625Z"></path>
        <path
            d="M87.787 5.00781C91.9233 5.00781 94.8225 7.8846 94.8225 11.842C94.8225 15.7771 91.9233 18.6539 87.787 18.6539C83.7029 18.6539 80.7739 15.7771 80.7739 11.842C80.7739 7.8846 83.6284 5.00781 87.787 5.00781ZM87.787 15.9783C90.1868 15.9783 91.8488 14.3611 91.8488 11.842C91.8488 9.29318 90.0601 7.68337 87.787 7.68337C85.4916 7.68337 83.755 9.27082 83.755 11.842C83.7476 14.212 85.3872 15.9783 87.787 15.9783Z"></path>
        <path
            d="M96.0819 8.9137C96.0819 6.49154 98.1016 5.00098 101.478 5.00098C103.796 5.00098 105.92 6.08909 106.777 7.3188L104.809 9.182C104.027 8.27276 102.64 7.66908 101.001 7.66908C99.9425 7.66908 99.0556 7.94484 99.0556 8.85408C99.0556 10.6726 107 10.0391 107 14.6524C107 17.4025 104.504 18.6396 101.604 18.6396C98.6755 18.6396 96.462 17.2758 95.5229 15.4871L97.7961 13.922C98.5264 15.0846 100.166 15.9641 101.88 15.9641C102.991 15.9641 104.027 15.6138 104.027 14.6747C104.027 12.7221 96.0819 13.4077 96.0819 8.9137Z"></path>
    </g>
     <style>
        .logo__group-primary {
            fill: #f78f39;
        }
        .fadeInUp {
            animation: 2.9s ease-in-out forwards fadeInUp;
        }
        @keyframes fadeInUp {
            from {
                opacity: 0;
                transform: translate3d(0, 200%, 0)
            }
            to {
                opacity: 1;
                transform: none
            }
        }

    </style>
</svg>