<?xml version="1.0" encoding="UTF-8"?>
<!DOCTYPE xml>
<svg xmlns="http://www.w3.org/2000/svg" viewBox="0 0 230 57" fill="none"><path d="M219.83 55.66V9.605h.043V0H12.318v55.66H0V57h230v-1.34h-10.17zM21.817 9.605h5.025v4.421h-5.025v-4.42zm-.238 4.421h-5.026v-4.42h5.026v4.42zm9.5-4.42h5.025v4.42h-5.026v-4.42zm5.254 0h5.025v4.42h-5.025v-4.42zm9.261 0h5.026v4.42h-5.026v-4.42zm5.255 0h5.025v4.42H50.85v-4.42zm9.261 0h5.026v4.42H60.11v-4.42zm5.264 0h5.025v4.42h-5.025v-4.42zm9.261 0h5.025v4.42h-5.025v-4.42zm5.255 0h5.025v4.42H79.89v-4.42zm9.261 0h5.026v4.42H89.15v-4.42zm5.263 0h5.026v4.42h-5.026v-4.42zm9.262 0h5.025v4.42h-5.025v-4.42zm5.254 0h5.026v4.42h-5.026v-4.42zm9.262 0h5.025v4.42h-5.025v-4.42zm5.255 0h5.025v4.42h-5.025v-4.42zm9.261 0h5.025v4.42h-5.025v-4.42zm5.263 0h5.026v4.42h-5.026v-4.42zm9.262 0h5.025v4.42h-5.025v-4.42zm5.254 0h5.026v4.42h-5.026v-4.42zm9.262 0h5.025v4.42h-5.025v-4.42zm5.263 0h5.025v4.42h-5.025v-4.42zm9.261 0h5.026v4.42h-5.026v-4.42zm5.255 0h5.025v4.42h-5.025v-4.42zm9.261 0h5.026v4.42h-5.026v-4.42zm5.255 0h5.026v4.42h-5.026v-4.42zm9.262 0h5.025v4.42h-5.025v-4.42zm5.263 0h5.025v4.42h-5.025v-4.42zM16.554 14.264h5.025V27.74h-5.026V14.264zm5.263 0h5.025V27.74h-5.025V14.264zm9.261 0h5.026V27.74h-5.026V14.264zm5.255 0h5.025V27.74h-5.025V14.264zm9.261 0h5.026V27.74h-5.026V14.264zm5.255 0h5.025V27.74H50.85V14.264zm9.261 0h5.026V27.74H60.11V14.264zm5.264 0h5.025V27.74h-5.025V14.264zm9.261 0h5.025V27.74h-5.025V14.264zm5.255 0h5.025V27.74H79.89V14.264zm9.261 0h5.026V27.74H89.15V14.264zm5.263 0h5.026V27.74h-5.026V14.264zm9.262 0h5.025V27.74h-5.025V14.264zm5.254 0h5.026V27.74h-5.026V14.264zm9.262 0h5.025V27.74h-5.025V14.264zm5.255 0h5.025V27.74h-5.025V14.264zm9.261 0h5.025V27.74h-5.025V14.264zm5.263 0h5.026V27.74h-5.026V14.264zm9.262 0h5.025V27.74h-5.025V14.264zm5.254 0h5.026V27.74h-5.026V14.264zm9.262 0h5.025V27.74h-5.025V14.264zm5.263 0h5.025V27.74h-5.025V14.264zm9.261 0h5.026V27.74h-5.026V14.264zm5.255 0h5.025V27.74h-5.025V14.264zm9.261 0h5.026V27.74h-5.026V14.264zm5.255 0h5.026V27.74h-5.026V14.264zm9.262 0h5.025V27.74h-5.025V14.264zm5.263 0h5.025V27.74h-5.025V14.264zM16.554 27.978h5.025v13.476h-5.026V27.978zm5.263 0h5.025v13.476h-5.025V27.978zm9.261 0h5.026v13.476h-5.026V27.978zm5.255 0h5.025v13.476h-5.025V27.978zm9.261 0h5.026v13.476h-5.026V27.978zm5.255 0h5.025v13.476H50.85V27.978zm9.261 0h5.026v13.476H60.11V27.978zm5.264 0h5.025v13.476h-5.025V27.978zm9.261 0h5.025v13.476h-5.025V27.978zm5.255 0h5.025v13.476H79.89V27.978zm9.261 0h5.026v13.476H89.15V27.978zm5.263 0h5.026v13.476h-5.026V27.978zm9.262 0h5.025v13.476h-5.025V27.978zm5.254 0h5.026v13.476h-5.026V27.978zm9.262 0h5.025v13.476h-5.025V27.978zm5.255 0h5.025v13.476h-5.025V27.978zm9.261 0h5.025v13.476h-5.025V27.978zm5.263 0h5.026v13.476h-5.026V27.978zm9.262 0h5.025v13.476h-5.025V27.978zm5.254 0h5.026v13.476h-5.026V27.978zm9.262 0h5.025v13.476h-5.025V27.978zm5.263 0h5.025v13.476h-5.025V27.978zm9.261 0h5.026v13.476h-5.026V27.978zm5.255 0h5.025v13.476h-5.025V27.978zm9.261 0h5.026v13.476h-5.026V27.978zm5.255 0h5.026v13.476h-5.026V27.978zm9.262 0h5.025v13.476h-5.025V27.978zm5.263 0h5.025v13.476h-5.025V27.978zM16.554 41.691h5.025V55.66h-5.026V41.691zm5.263 0h5.025V55.66h-5.025V41.691zm9.261 0h5.026V55.66h-5.026V41.691zm5.255 0h5.025V55.66h-5.025V41.691zm9.261 0h5.026V55.66h-5.026V41.691zm5.255 0h5.025V55.66H50.85V41.691zm9.261 0h5.026V55.66H60.11V41.691zm5.264 0h5.025V55.66h-5.025V41.691zm9.261 0h5.025V55.66h-5.025V41.691zm5.255 0h5.025V55.66H79.89V41.691zm9.261 0h5.026V55.66H89.15V41.691zm5.263 0h5.026V55.66h-5.026V41.691zm9.262 0h5.025V55.66h-5.025V41.691zm5.254 0h5.026V55.66h-5.026V41.691zm9.262 0h5.025V55.66h-5.025V41.691zm5.255 0h5.025V55.66h-5.025V41.691zm9.261 0h5.025V55.66h-5.025V41.691zm5.263 0h5.026V55.66h-5.026V41.691zm9.262 0h5.025V55.66h-5.025V41.691zm5.254 0h5.026V55.66h-5.026V41.691zm9.262 0h5.025V55.66h-5.025V41.691zm5.263 0h5.025V55.66h-5.025V41.691zm9.261 0h5.026V55.66h-5.026V41.691zm5.255 0h5.025V55.66h-5.025V41.691zm9.261 0h5.026V55.66h-5.026V41.691zm5.255 0h5.026V55.66h-5.026V41.691zm9.262 0h5.025V55.66h-5.025V41.691zm5.263 0h5.025V55.66h-5.025V41.691z" fill="#292420"/></svg>