<?xml version="1.0" encoding="UTF-8"?>
<!DOCTYPE xml>
<svg xmlns="http://www.w3.org/2000/svg" viewBox="0 0 186 212" fill="none"><path d="M37.78 85.31h-3.819v26.741h3.82v-26.74zm18.412 0h-3.82v26.741h3.82v-26.74zm117.645 125.983l-1.557-12.938h3.022l-7.615-189.82-34.067 2.295-3.584 154.469-1.253.008.289-.008 3.196-151.88-16.308 151.933-47.332.188V85.31h-6.233v26.741h-6.203v16.964h-3.82v-16.964h-3.818v16.964H42.79v-16.964h5.763v-26.74h-7.578v26.74h-3.203v16.851H42.6v16.965h-4.828v-16.852h-3.82v-16.964h-6.537v16.851h3.82v16.965h-3.82v-16.852h-6.65v16.852H10.85v-16.965h9.93v-16.851h6.651v-26.74H4.67v125.982H0V212h186v-.707h-12.163zm-105.209 0v-12.938h3.516l1.556 12.938h-5.072zm9.15 0h-.79l-1.557-12.938h4.79l-2.444 12.938zm3.294 0l1.466-7.768 1.867 7.768h-3.333zm6.629 0l-3.113-12.938h9.088l-4.024 12.938H87.7zm5.246 0l4.024-12.938h2.877l2.445 12.938h-9.346zm11.654-5.224l-1.457-7.722h3.355l-1.898 7.722zm2.005 5.224l3.189-12.938h3.72l1.556 12.938h-8.465zm13.036 0h-1.276l-1.556-12.938h5.952l-3.12 12.938zm3.295 0l3.128-12.938h3.326l-3.948 12.938h-2.506zm5.793 0l3.948-12.938h7.046l1.556 12.938h-12.55zm15.846 0l-1.557-12.938h8.405l3.113 12.938h-9.961zm16.711 0h-3.463l-3.112-12.938h9.687l-3.112 12.938zm3.295 0l3.113-12.938h1.29l1.557 12.938h-5.96zM167.026 0l-33.452 6.126v3.786l33.908-2.634L167.026 0z" fill="#292420"/></svg>