<?xml version="1.0" encoding="UTF-8"?>
<!DOCTYPE xml>
<svg xmlns="http://www.w3.org/2000/svg" viewBox="0 0 205 82" fill="none"><path d="M204.881 15.311V7.26h-24.122V0H10.582C8.553 0 7.068 1.882 7.535 3.84l18.511 77.122H.89V82h204v-1.038h-24.792V35.61h24.792v-8.23h-24.122V15.31h24.114zM68.315 80.067h-2.071V66.242h8.58v8.33l-6.51 5.495zm34.706-29.28h-7.64V35.704h8.582v14.29l-.942.793zm-7.817 0h-7.206V35.704h7.206v15.083zm-11.518 0H75.01V35.704h8.675v15.083zm0 15.269H75.01V50.972h8.675v15.084zm-8.853-15.27h-8.58V35.705h8.58v15.083zm0 .186v15.084h-8.58V50.972h8.58zm.187 15.27h8.674v.86L75.02 74.42v-8.178zm12.978-15.27h7.206v6.415l-7.206 6.078V50.971zm7.392 0h7.419l-7.419 6.263v-6.263zm8.76-1.13V35.704h7.206v8.06l-7.206 6.078zm11.517-14.138h5.246l-5.246 4.422v-4.422zm44.289-8.01v-7.26h4.906v7.209l-4.906.05zm-.179 0l-9.047.1v-7.368h9.047v7.268zm-9.234.11l-6.536.075v-7.444h6.536v7.368zm-10.847.126l-7.393.084v-7.58h7.393v7.496zm-7.571.084l-2.122.026-6.926 5.84V20.435h9.048v7.58zm-9.235 6.018l-1.765 1.486h-5.458V20.435h7.223v13.597zm-11.534 1.486h-7.206V20.435h7.206v15.083zm-7.385 0h-8.58V20.435h8.58v15.083zm-8.767 0h-7.206V20.435h7.206v15.083zm-11.518 0H75.01V20.435h8.675v15.083zm-8.853 0h-8.58V20.435h8.58v15.083zm-8.767 0h-7.461V20.435h7.46v15.083zm0 .186v15.083h-7.461V35.704h7.46zm0 15.268v15.084h-7.461V50.972h7.46zm0 15.27v13.825h-7.461V66.242h7.46zm17.62 10.288v4.432H78.55l5.135-4.431zm4.312-3.722l23.349-20.164v28.318h-23.35v-8.154zm27.669-23.887l15.303-13.217h8.717v45.258h-24.028v-32.04h.008zm28.34-13.217h20.863v45.258h-20.863V35.704zm25.175-8.12v-7.158h3.828v7.116l-3.828.042zm3.828-7.335h-3.828v-6.93h3.828v6.93zm-8.14-6.93v6.93h-4.906v-6.93h4.906zm-5.093 0v6.93h-9.047v-6.93h9.047zm-9.234 6.93h-6.536v-6.93h6.536v6.93zm-10.847-6.93v6.93h-7.393v-6.93h7.393zm-7.571 0v6.93h-9.048v-6.93h9.048zm-9.235 6.93h-7.223v-6.93h7.223v6.93zm-11.534-6.93v6.93h-7.206v-6.93h7.206zm-7.385 0v6.93h-8.58v-6.93h8.58zm-8.767 6.93h-7.206v-6.93h7.206v6.93zm-11.518-6.93v6.93H75.01v-6.93h8.675zm-8.853 0v6.93h-8.58v-6.93h8.58zm-8.767 6.93h-7.461v-6.93h7.46v6.93zm-18.563-6.93h6.79v6.93h-6.79v-6.93zm0 7.116h6.79v15.083h-6.79V20.435zm0 15.269h6.79v15.083h-6.79V35.704zm0 15.268h6.79v15.084h-6.79V50.972zm0 15.27h6.79v13.825h-6.79V66.242zm128.274 14.72h-6.604V35.704h1.053v-.093h5.551v45.35z" fill="#292420"/></svg>