<?xml version="1.0" encoding="UTF-8"?>
<!DOCTYPE xml>
<svg xmlns="http://www.w3.org/2000/svg" viewBox="0 0 306 157" fill="none"><path d="M292.848 147.162v-34.353h3.759v-2.589H233.2v2.589h3.76v34.353h-29.718v-34.353h2.443v-2.589h-14.781v36.942h-.944V110.22h-20.604v36.942h-.943V110.22h-14.469v2.589h2.443v34.353h-10.926v-34.353h2.443v-2.589h-37.272v36.942h-.943V110.22H99.077v36.942h-.943V110.22h-36.83v2.589h2.442v34.353H52.4v-34.353h2.443v-2.589h-14.78v36.942h-.944V110.22H18.514v36.942h-.944V110.22H3.101v2.589h2.444v34.353H0V157h306v-9.838h-13.152zm-36.315 0h-.944v-34.353h.944v34.353zm17.692 0h-.943v-34.353h.943v34.353zm-37.258-82.476h18.629V27.383h.943v37.303h16.75V27.383h.943v37.303h18.629v-37.5l2.348-4.859v-5.335h-3.284V12.68h.936V9.873h-8.429v2.807h.91v4.313h-5.416v-5.717h-5.694V8.387h-3.515v-5.58h.909V0h-13.424v2.807h.91v5.58h-3.516v2.89h-5.694v5.716h-5.348V12.68h.937V9.873h-8.429v2.807h.909v4.313h-3.359v5.334l2.348 4.858v37.5h.007zm52.44-52.006h.95v4.313h-.95V12.68zm-2.511 0h.95v4.313h-.95V12.68zM268.199 2.8h.95v5.58h-.95V2.8zm-2.511 0h.95v5.58h-.95V2.8zm-2.511 0h.95v5.58h-.95V2.8zm-2.511 0h.95v5.58h-.95V2.8zm-5.884 21.238h2.986V10.152h2.701v13.886h1.16V10.152h2.701v13.886h1.161V10.152h2.701v13.886h1.16V10.152h2.702v13.886h2.986v.92h-20.252v-.92h-.006zM242.043 12.68h.95v4.313h-.95V12.68zm-2.511 0h.95v4.313h-.95V12.68zm-2.565 96.613h18.629V68.195h.943v41.098h16.75V68.195h.943v41.098h18.629V68.195h3.76v-2.59h-63.407v2.59h3.76v41.098h-.007zm-76.566 0h12.026V77.774h.943v31.519h20.604V77.774h.943v31.519h12.338V77.761h2.443v-2.59h-51.734v2.59h2.444v31.532h-.007zm47.112-37.399l1.378-.354c-.014-.061-1.656-6.207-8.687-6.207v1.431c5.904 0 7.255 4.926 7.309 5.13zm-40.068-5.13v-1.43c-7.031 0-8.673 6.145-8.687 6.206l1.378.354c.061-.204 1.412-5.13 7.309-5.13zm0 7.488h32.759v-7.345h-32.759v7.345zm-154.829 0h32.76v-7.345h-32.76v7.345zm0-7.488v-1.43c-7.03 0-8.673 6.145-8.687 6.206l1.378.354c.054-.204 1.405-5.13 7.31-5.13zm40.061 5.13l1.378-.354c-.014-.061-1.656-6.207-8.687-6.207v1.431c5.905 0 7.255 4.926 7.31 5.13zM5.565 109.293h12.026V77.774h.943v31.519h20.604V77.774h.944v31.519h12.337V77.761h2.444v-2.59H3.129v2.59h2.443v31.532h-.007zM144.14 76.228h-15.086v-5.9h-10.818v-4.11H94.713v4.11h-10.54v5.9H69.088v4.394h75.053v-4.394zm-80.373 33.065h34.387V82.837h.944v26.456h14.611V82.837h.943v26.456h34.829V84.131h2.443v-2.589h-90.6v2.59h2.443v25.161zm72.596-33.849l1.377-.354c-.013-.061-1.656-6.207-8.686-6.207v1.43c5.904 0 7.254 4.927 7.309 5.131zm-52.182-5.13v-1.431c-7.031 0-8.674 6.146-8.687 6.207l1.378.354c.06-.204 1.411-5.13 7.309-5.13z" fill="#292420"/></svg>