<?xml version="1.0" encoding="UTF-8"?>
<!DOCTYPE xml>
<svg xmlns="http://www.w3.org/2000/svg" viewBox="0 0 244 180" fill="none"><path d="M24.839 179.436v-14.387h2.625v-48.97H26.01v-1.591h23.376v1.591H47.93v11.462h5.726v-4.195h-1.359v-1.591h19.926v1.591h-1.358v4.195H82.08v-4.195h-1.359v-1.591h19.926v1.591H99.29v4.195h5.16V101.5h-1.943v-1.59h14.973v-6.568h-1.573V91.75h11.919V66.448h-1.611v-1.59h2.853V60.06h-1.248v-1.59h17.82V41.08h-1.19v-1.59h4.81V27.874h2.398V24.43h.805l2.1-24.43s1.741 21.25 2.164 24.43h.747v3.445h1.787V39.49h4.809v1.591h-1.189V58.47h17.651v1.59h-1.248v4.799h2.853v1.59h-1.611v25.303h11.717v1.59h-1.573v6.569h15.182v1.59h-1.944v24.45h20.472v1.591h-2.918v37.508h2.918v14.387H244V180H0v-.564h24.839zm190.163 0h6.115v-8.108s-.727-.853-3.054-.853-3.054.853-3.054.853v8.108h-.007zm-9.885 0h6.116v-8.108s-.728-.853-3.055-.853c-2.326 0-3.054.853-3.054.853v8.108h-.007zm-9.885 0h6.116v-8.108s-.728-.853-3.055-.853c-2.326 0-3.054.853-3.054.853v8.108h-.007zm-9.878 0h6.116v-8.108s-.728-.853-3.055-.853c-2.326 0-3.054.853-3.054.853v8.108h-.007zm-8.227-14.387h1.065v-61.554h-1.065v61.554zm0-65.14h1.065V67.04h-1.065v32.87zm-2.834 65.14h1.066v-61.554h-1.066v61.554zm0-65.14h1.066V67.04h-1.066v32.87zm-2.833 65.14h1.065v-61.554h-1.065v61.554zm0-65.14h1.065V67.04h-1.065v32.87zm-2.84 65.14h1.065v-61.554h-1.065v61.554zm0-65.14h1.065V67.04h-1.065v32.87zm-2.834 65.14h1.066v-61.554h-1.066v61.554zm0-65.14h1.066V67.04h-1.066v32.87zm-2.833 65.14h1.065v-61.554h-1.065v61.554zm0-65.14h1.065V67.04h-1.065v32.87zm-7.832-68.173h-1.709v7.742h1.709v-7.742zm3.633 133.313h1.489v-8.242h-1.489v8.242zm0-9.294h1.489v-12.526h-1.489v12.526zm0-13.571h1.489v-12.527h-1.489v12.527zm0-13.579h1.489v-12.526h-1.489v12.526zm0-13.578h1.489v-12.526h-1.489v12.526zm0-13.572h1.489V88.929h-1.489v12.526zm0-13.578h1.489V75.351h-1.489v12.526zm0-13.578h1.489V64.85h-1.489v9.45zm-.89-42.563h-1.709v7.742h1.709v-7.742zm-7.019 133.313h6.844v-8.242h-6.844v8.242zm0-9.294h6.844v-12.526h-6.844v12.526zm0-13.571h6.844v-12.527h-6.844v12.527zm0-13.579h6.844v-12.526h-6.844v12.526zm0-13.578h6.844v-12.526h-6.844v12.526zm0-13.572h6.844V88.929h-6.844v12.526zm0-13.578h6.844V75.351h-6.844v12.526zm0-13.578h6.844V64.85h-6.844v9.45zm-.188-34.815h1.709v-7.742h-1.709v7.742zm-2.535 125.565h1.664v-8.242h-1.664v8.242zm0-9.294h1.664v-12.526h-1.664v12.526zm0-13.571h1.664v-12.527h-1.664v12.527zm0-13.579h1.664v-12.526h-1.664v12.526zm0-13.578h1.664v-12.526h-1.664v12.526zm0-13.572h1.664V88.929h-1.664v12.526zm0-13.578h1.664V75.351h-1.664v12.526zm0-13.578h1.664V64.85h-1.664v9.45zm-3.594 90.75h1.066v-61.554h-1.066v61.554zm0-65.14h1.066V67.04h-1.066v32.87zm-2.833 65.14h1.066v-61.554h-1.066v61.554zm0-65.14h1.066V67.04h-1.066v32.87zm-2.834 65.14h1.066v-61.554h-1.066v61.554zm0-65.14h1.066V67.04h-1.066v32.87zm-2.84 65.14h1.066v-61.554h-1.066v61.554zm0-65.14h1.066V67.04h-1.066v32.87zm-2.833 65.14h1.066v-61.554h-1.066v61.554zm0-65.14h1.066V67.04h-1.066v32.87zm-2.834 65.14h1.066v-61.554h-1.066v61.554zm0-65.14h1.066V67.04h-1.066v32.87zm-11.86 79.527h6.115v-8.108s-.728-.853-3.054-.853c-2.327 0-3.055.853-3.055.853v8.108h-.006zm-9.878 0h6.115v-8.108s-.728-.853-3.054-.853c-2.327 0-3.055.853-3.055.853v8.108h-.006zm-9.885 0h6.115v-8.108s-.728-.853-3.054-.853c-2.327 0-3.055.853-3.055.853v8.108h-.006zm-9.885 0h6.115v-8.108s-.727-.853-3.054-.853-3.054.853-3.054.853v8.108h-.007zm-9.878 0h6.115v-8.108s-.728-.853-3.054-.853c-2.327 0-3.055.853-3.055.853v8.108h-.006zm-9.885 0h6.115v-8.108s-.727-.853-3.054-.853-3.055.853-3.055.853v8.108h-.006zm-9.878 0h6.115v-8.108s-.728-.853-3.054-.853c-2.327 0-3.055.853-3.055.853v8.108h-.006zm-9.885 0h6.115v-8.108s-.727-.853-3.054-.853-3.054.853-3.054.853v8.108h-.007zm-9.878 0h6.115v-8.108s-.728-.853-3.054-.853c-2.327 0-3.055.853-3.055.853v8.108h-.006zm-9.885 0h6.115v-8.108s-.728-.853-3.054-.853c-2.327 0-3.055.853-3.055.853v8.108h-.006z" fill="#292420"/></svg>